<svg width="126" height="142" viewBox="0 0 126 142" fill="none" xmlns="http://www.w3.org/2000/svg">
<g filter="url(#filter0_d_2933_3)">
<path fill-rule="evenodd" clip-rule="evenodd" d="M64.8567 2.59584C62.0605 0.990231 58.6189 1.00321 55.8349 2.62987L7.45969 30.8943C4.69782 32.508 3 35.4664 3 38.6651V94.4496C3 97.5865 4.63328 100.497 7.31072 102.131L55.6872 131.662C58.5451 133.407 62.1352 133.421 65.0064 131.698L114.308 102.122C117.019 100.495 118.678 97.5655 118.678 94.4039V38.7103C118.678 35.4874 116.954 32.5104 114.159 30.9055L64.8567 2.59584ZM55.9589 19.9724C58.6792 18.4358 62.0016 18.42 64.7364 19.9304L100.952 39.9325C103.821 41.5165 105.601 44.5342 105.601 47.8107V85.6375C105.601 88.9415 103.791 91.9798 100.885 93.5525L64.6685 113.155C61.9691 114.616 58.7112 114.601 56.0258 113.114L20.7179 93.5692C17.8539 91.9839 16.0766 88.9685 16.0766 85.6951V47.7529C16.0766 44.5071 17.8242 41.5129 20.6503 39.9166L55.9589 19.9724Z" fill="#F18D01"/>
<path fill-rule="evenodd" clip-rule="evenodd" d="M64.8567 2.59584C62.0605 0.990231 58.6189 1.00321 55.8349 2.62987L7.45969 30.8943C4.69782 32.508 3 35.4664 3 38.6651V94.4496C3 97.5865 4.63328 100.497 7.31072 102.131L55.6872 131.662C58.5451 133.407 62.1352 133.421 65.0064 131.698L114.308 102.122C117.019 100.495 118.678 97.5655 118.678 94.4039V38.7103C118.678 35.4874 116.954 32.5104 114.159 30.9055L64.8567 2.59584ZM55.9589 19.9724C58.6792 18.4358 62.0016 18.42 64.7364 19.9304L100.952 39.9325C103.821 41.5165 105.601 44.5342 105.601 47.8107V85.6375C105.601 88.9415 103.791 91.9798 100.885 93.5525L64.6685 113.155C61.9691 114.616 58.7112 114.601 56.0258 113.114L20.7179 93.5692C17.8539 91.9839 16.0766 88.9685 16.0766 85.6951V47.7529C16.0766 44.5071 17.8242 41.5129 20.6503 39.9166L55.9589 19.9724Z" stroke="black"/>
</g>
<defs>
<filter id="filter0_d_2933_3" x="0.5" y="0.900391" width="124.678" height="140.58" filterUnits="userSpaceOnUse" color-interpolation-filters="sRGB">
<feFlood flood-opacity="0" result="BackgroundImageFix"/>
<feColorMatrix in="SourceAlpha" type="matrix" values="0 0 0 0 0 0 0 0 0 0 0 0 0 0 0 0 0 0 127 0" result="hardAlpha"/>
<feOffset dx="2" dy="4"/>
<feGaussianBlur stdDeviation="2"/>
<feComposite in2="hardAlpha" operator="out"/>
<feColorMatrix type="matrix" values="0 0 0 0 0 0 0 0 0 0 0 0 0 0 0 0 0 0 0.25 0"/>
<feBlend mode="normal" in2="BackgroundImageFix" result="effect1_dropShadow_2933_3"/>
<feBlend mode="normal" in="SourceGraphic" in2="effect1_dropShadow_2933_3" result="shape"/>
</filter>
</defs>
</svg>
