<svg width="160" height="183" viewBox="0 0 160 183" fill="none" xmlns="http://www.w3.org/2000/svg">
<path fill-rule="evenodd" clip-rule="evenodd" d="M70.9562 0.563359C63.5637 1.96986 57.3347 4.15336 51.2312 7.47836C45.9612 10.3494 42.6957 12.8609 37.2712 18.2144C34.6802 20.7709 32.4867 22.8629 32.3962 22.8629C32.3052 22.8629 32.2277 20.2194 32.2237 16.9879C32.2152 10.2494 31.7597 8.88936 29.2182 8.01586C26.3377 7.02636 22.0387 7.19436 21.0047 8.33686C19.9952 9.45236 20.0692 13.3439 21.2662 22.0264C21.8667 26.3839 21.8517 27.2894 21.1332 30.0264C20.6872 31.7239 19.4372 34.5754 18.3547 36.3629C4.63618 59.0164 -1.32181 78.3434 0.244188 95.1129C1.81669 111.952 8.04169 121.236 31.4292 141.621C40.2272 149.289 58.8677 165.695 66.2157 172.237C76.0072 180.954 80.9832 183.623 83.8927 181.717C86.6187 179.93 114.052 140.852 121.273 128.468C122.762 125.913 126.175 120.431 128.856 116.286C131.633 111.993 133.731 108.224 133.731 107.529C133.731 106.67 132.354 104.875 129.075 101.461C126.514 98.7944 120.509 91.8879 115.732 86.1129C105.727 74.0204 96.8597 64.8669 92.3262 61.9524C88.1717 59.2819 83.3312 57.6904 79.2312 57.6469C73.9817 57.5919 72.0527 58.7619 56.2047 71.6129C52.8132 74.3629 49.2382 77.3304 48.2597 78.2069C47.2817 79.0839 44.4287 81.1089 41.9202 82.7069C36.4387 86.1999 35.4272 87.0164 33.3677 89.6129C31.2112 92.3319 30.5157 95.4869 31.7397 96.9959C32.4932 97.9249 33.1087 98.1024 35.3952 98.0494C38.7162 97.9724 41.8507 96.3089 46.7912 91.9999C61.1632 79.4654 64.5242 76.5624 69.3792 72.4879C72.4097 69.9444 75.1052 67.8629 75.3687 67.8629C75.8947 67.8629 76.9212 68.7934 92.9812 83.8284C106.435 96.4224 114.636 103.917 118.106 106.786C119.55 107.979 120.731 109.162 120.731 109.415C120.731 109.667 119.533 111.84 118.069 114.243C116.605 116.646 113.981 121.088 112.239 124.113C107.715 131.965 103.892 137.939 97.3567 147.363C94.2102 151.9 88.9312 159.956 85.6257 165.266L79.6157 174.918L74.7987 170.18C72.1492 167.574 68.4062 164.121 66.4812 162.507C54.7187 152.645 48.3072 146.784 38.8967 137.291C23.2087 121.465 19.8147 117.009 16.5502 107.959C14.7022 102.837 14.1597 99.0194 14.1617 91.1619C14.1662 75.4994 17.8292 64.4584 27.1967 51.8719C33.7157 43.1124 46.5822 31.4774 57.8617 24.1419C81.8402 8.54686 109.149 10.8779 129.329 30.2419C137.616 38.1934 142.718 45.5624 147.299 56.1999C153.723 71.1144 155.448 88.4224 152.015 103.505C150.334 110.887 149.101 114.171 144.402 123.784C141.351 130.026 135.212 140.207 133.797 141.373C133.623 141.516 132.735 142.442 131.824 143.43C130.29 145.094 130.227 145.288 130.985 146.045C132.219 147.279 132.675 147.089 135.342 144.238C147.541 131.192 155.103 117.152 158.282 101.645C163.268 77.3234 156.491 50.8504 140.012 30.2814C127.977 15.2594 113.504 5.82486 95.5387 1.29186C90.2907 -0.0326405 76.2712 -0.448141 70.9562 0.563359ZM61.3737 105.067C60.3482 105.535 59.6422 106.293 59.4242 107.161C58.9642 108.995 59.6232 125.18 60.2512 127.453C60.9452 129.968 64.0607 132.64 67.4447 133.624C69.9737 134.359 70.7642 134.358 77.0902 133.615C84.8842 132.699 86.6117 132.264 88.1497 130.831C89.1887 129.863 89.2312 129.431 89.2312 119.827C89.2312 108.828 88.9227 107.265 86.4242 105.612C85.2522 104.836 84.2767 104.689 81.2312 104.825C74.8592 105.111 72.1467 105.088 67.4812 104.704C63.9762 104.417 62.6257 104.497 61.3737 105.067ZM83.7312 112.613V115.363H80.4812H77.2312V112.946C77.2312 111.617 77.3812 110.379 77.5647 110.196C77.7477 110.013 79.2102 109.863 80.8147 109.863H83.7312V112.613ZM72.3687 113.738C72.6747 116.451 72.3342 116.844 69.6687 116.855C68.0362 116.862 67.8252 116.707 67.5437 115.3C66.8702 111.932 67.1307 111.621 70.7912 111.431C71.9957 111.368 72.1227 111.554 72.3687 113.738ZM72.4672 124.152C72.6607 125.961 72.7432 127.516 72.6502 127.607C72.5572 127.698 71.4687 127.845 70.2312 127.934L67.9812 128.096L67.8342 124.761L67.6867 121.426L69.5842 121.228C70.6277 121.12 71.6237 120.993 71.7982 120.947C71.9722 120.901 72.2732 122.343 72.4672 124.152ZM83.6527 125.079C83.5497 127.123 83.3067 128.954 83.1127 129.148C82.9187 129.342 81.7697 129.224 80.5597 128.885C78.3892 128.277 78.3552 128.234 78.0497 125.691C77.5042 121.149 77.3687 121.363 80.7857 121.363H83.8407L83.6527 125.079Z" fill="black"/>
</svg>
